<svg width="645" height="124" viewBox="0 0 645 124" fill="none" xmlns="http://www.w3.org/2000/svg">
<path opacity="0.9" d="M34.936 45H44.456L26.928 5.8H17.968L0.496 45H9.792L13.264 36.6H31.464L34.936 45ZM16.176 29.712L22.392 14.704L28.608 29.712H16.176ZM52.667 10.672C55.915 10.672 58.099 8.544 58.099 5.632C58.099 2.944 55.915 0.927997 52.667 0.927997C49.419 0.927997 47.235 3.056 47.235 5.8C47.235 8.544 49.419 10.672 52.667 10.672ZM45.667 56.312C52.947 56.312 57.035 51.888 57.035 44.944V14.872H48.299V45C48.299 47.968 46.899 49.368 44.715 49.368C43.259 49.368 41.971 48.976 41.019 48.304L38.667 54.632C40.347 55.808 42.979 56.312 45.667 56.312ZM86.6949 14.872V29.768C86.6949 35.312 83.7829 37.888 79.7509 37.888C75.8869 37.888 73.6469 35.648 73.6469 30.608V14.872H64.9109V31.896C64.9109 41.192 70.2309 45.448 77.7909 45.448C81.4869 45.448 84.8469 44.048 87.1429 41.416V45H95.4309V14.872H86.6949ZM125.476 3.448V18.064C123.292 15.6 120.156 14.424 116.46 14.424C107.948 14.424 101.396 20.472 101.396 29.936C101.396 39.4 107.948 45.448 116.46 45.448C120.492 45.448 123.684 44.16 125.868 41.528V45H134.212V3.448H125.476ZM117.972 38.28C113.604 38.28 110.244 35.144 110.244 29.936C110.244 24.728 113.604 21.592 117.972 21.592C122.284 21.592 125.644 24.728 125.644 29.936C125.644 35.144 122.284 38.28 117.972 38.28ZM154.45 14.424C149.634 14.424 144.762 15.712 141.458 18.064L144.594 24.168C146.778 22.432 150.082 21.368 153.274 21.368C157.978 21.368 160.218 23.552 160.218 27.304H153.274C144.09 27.304 140.338 31 140.338 36.32C140.338 41.528 144.538 45.448 151.594 45.448C156.018 45.448 159.154 43.992 160.778 41.248V45H168.954V27.808C168.954 18.68 163.634 14.424 154.45 14.424ZM153.778 39.568C150.698 39.568 148.85 38.112 148.85 35.928C148.85 33.912 150.138 32.4 154.226 32.4H160.218V35.48C159.21 38.224 156.69 39.568 153.778 39.568ZM195.172 14.424C191.084 14.424 187.556 15.824 185.204 18.4V14.872H176.86V45H185.596V30.104C185.596 24.56 188.62 21.984 192.82 21.984C196.684 21.984 198.924 24.224 198.924 29.096V45H207.66V27.752C207.66 18.568 202.284 14.424 195.172 14.424ZM237.859 3.448V18.064C235.675 15.6 232.539 14.424 228.843 14.424C220.331 14.424 213.779 20.472 213.779 29.936C213.779 39.4 220.331 45.448 228.843 45.448C232.875 45.448 236.067 44.16 238.251 41.528V45H246.595V3.448H237.859ZM230.355 38.28C225.987 38.28 222.627 35.144 222.627 29.936C222.627 24.728 225.987 21.592 230.355 21.592C234.667 21.592 238.027 24.728 238.027 29.936C238.027 35.144 234.667 38.28 230.355 38.28ZM269.016 45.448C278.592 45.448 285.536 39.008 285.536 29.936C285.536 20.864 278.592 14.424 269.016 14.424C259.44 14.424 252.44 20.864 252.44 29.936C252.44 39.008 259.44 45.448 269.016 45.448ZM269.016 38.28C264.648 38.28 261.288 35.144 261.288 29.936C261.288 24.728 264.648 21.592 269.016 21.592C273.384 21.592 276.688 24.728 276.688 29.936C276.688 35.144 273.384 38.28 269.016 38.28ZM328.739 14.872L320.115 35.368L311.771 14.872H302.755L315.411 45H324.427L337.139 14.872H328.739ZM354.22 45.448C363.796 45.448 370.74 39.008 370.74 29.936C370.74 20.864 363.796 14.424 354.22 14.424C344.644 14.424 337.644 20.864 337.644 29.936C337.644 39.008 344.644 45.448 354.22 45.448ZM354.22 38.28C349.852 38.28 346.492 35.144 346.492 29.936C346.492 24.728 349.852 21.592 354.22 21.592C358.588 21.592 361.892 24.728 361.892 29.936C361.892 35.144 358.588 38.28 354.22 38.28ZM391.139 45.448C397.467 45.448 402.451 42.648 404.635 37.832L397.859 34.136C396.235 37.048 393.827 38.28 391.083 38.28C386.659 38.28 383.187 35.2 383.187 29.936C383.187 24.672 386.659 21.592 391.083 21.592C393.827 21.592 396.235 22.88 397.859 25.736L404.635 22.096C402.451 17.168 397.467 14.424 391.139 14.424C381.339 14.424 374.339 20.864 374.339 29.936C374.339 39.008 381.339 45.448 391.139 45.448ZM422.946 6.752L427.818 11.008H434.202L426.81 2.944H419.082L411.69 11.008H418.074L422.946 6.752ZM438.794 30.048C438.794 20.36 431.962 14.424 423.114 14.424C413.93 14.424 407.042 20.92 407.042 29.936C407.042 38.896 413.818 45.448 424.234 45.448C429.666 45.448 433.866 43.768 436.666 40.576L432.018 35.536C429.946 37.496 427.65 38.448 424.458 38.448C419.866 38.448 416.674 36.152 415.834 32.4H438.626C438.682 31.672 438.794 30.72 438.794 30.048ZM423.17 21.032C427.09 21.032 429.946 23.496 430.562 27.304H415.722C416.338 23.44 419.194 21.032 423.17 21.032ZM472.622 14.424C467.806 14.424 462.934 15.712 459.63 18.064L462.766 24.168C464.95 22.432 468.254 21.368 471.446 21.368C476.15 21.368 478.39 23.552 478.39 27.304H471.446C462.262 27.304 458.51 31 458.51 36.32C458.51 41.528 462.71 45.448 469.766 45.448C474.19 45.448 477.326 43.992 478.95 41.248V45H487.126V27.808C487.126 18.68 481.806 14.424 472.622 14.424ZM471.95 39.568C468.87 39.568 467.022 38.112 467.022 35.928C467.022 33.912 468.31 32.4 472.398 32.4H478.39V35.48C477.382 38.224 474.862 39.568 471.95 39.568ZM19.592 123.448C25.92 123.448 30.904 120.648 33.088 115.832L26.312 112.136C24.688 115.048 22.28 116.28 19.536 116.28C15.112 116.28 11.64 113.2 11.64 107.936C11.64 102.672 15.112 99.592 19.536 99.592C22.28 99.592 24.688 100.88 26.312 103.736L33.088 100.096C30.904 95.168 25.92 92.424 19.592 92.424C9.792 92.424 2.792 98.864 2.792 107.936C2.792 117.008 9.792 123.448 19.592 123.448ZM59.7339 92.872V107.768C59.7339 113.312 56.8219 115.888 52.7899 115.888C48.9259 115.888 46.6859 113.648 46.6859 108.608V92.872H37.9499V109.896C37.9499 119.192 43.2699 123.448 50.8299 123.448C54.5259 123.448 57.8859 122.048 60.1819 119.416V123H68.4699V92.872H59.7339ZM80.9313 88.672C84.1793 88.672 86.3633 86.544 86.3633 83.632C86.3633 80.944 84.1793 78.928 80.9313 78.928C77.6833 78.928 75.4993 81.056 75.4993 83.8C75.4993 86.544 77.6833 88.672 80.9313 88.672ZM76.5633 123H85.2993V92.872H76.5633V123ZM115.359 81.448V96.064C113.175 93.6 110.039 92.424 106.343 92.424C97.831 92.424 91.279 98.472 91.279 107.936C91.279 117.4 97.831 123.448 106.343 123.448C110.375 123.448 113.567 122.16 115.751 119.528V123H124.095V81.448H115.359ZM107.855 116.28C103.487 116.28 100.127 113.144 100.127 107.936C100.127 102.728 103.487 99.592 107.855 99.592C112.167 99.592 115.527 102.728 115.527 107.936C115.527 113.144 112.167 116.28 107.855 116.28ZM144.332 92.424C139.516 92.424 134.644 93.712 131.34 96.064L134.476 102.168C136.66 100.432 139.964 99.368 143.156 99.368C147.86 99.368 150.1 101.552 150.1 105.304H143.156C133.972 105.304 130.22 109 130.22 114.32C130.22 119.528 134.42 123.448 141.476 123.448C145.9 123.448 149.036 121.992 150.66 119.248V123H158.836V105.808C158.836 96.68 153.516 92.424 144.332 92.424ZM143.66 117.568C140.58 117.568 138.732 116.112 138.732 113.928C138.732 111.912 140.02 110.4 144.108 110.4H150.1V113.48C149.092 116.224 146.572 117.568 143.66 117.568ZM175.087 96.848V92.872H166.743V123H175.479V108.776C175.479 103.008 178.671 100.376 183.487 100.376C184.159 100.376 184.719 100.432 185.447 100.488V92.424C180.799 92.424 177.215 93.936 175.087 96.848ZM228.672 81.448V96.064C226.488 93.6 223.352 92.424 219.656 92.424C211.144 92.424 204.592 98.472 204.592 107.936C204.592 117.4 211.144 123.448 219.656 123.448C223.688 123.448 226.88 122.16 229.064 119.528V123H237.408V81.448H228.672ZM221.168 116.28C216.8 116.28 213.44 113.144 213.44 107.936C213.44 102.728 216.8 99.592 221.168 99.592C225.48 99.592 228.84 102.728 228.84 107.936C228.84 113.144 225.48 116.28 221.168 116.28ZM257.645 92.424C252.829 92.424 247.957 93.712 244.653 96.064L247.789 102.168C249.973 100.432 253.277 99.368 256.469 99.368C261.173 99.368 263.413 101.552 263.413 105.304H256.469C247.285 105.304 243.533 109 243.533 114.32C243.533 119.528 247.733 123.448 254.789 123.448C259.213 123.448 262.349 121.992 263.973 119.248V123H272.149V105.808C272.149 96.68 266.829 92.424 257.645 92.424ZM256.973 117.568C253.893 117.568 252.045 116.112 252.045 113.928C252.045 111.912 253.333 110.4 257.421 110.4H263.413V113.48C262.405 116.224 259.885 117.568 256.973 117.568ZM306.051 123.448C315.067 123.448 320.275 119.472 320.275 113.872C320.275 102 302.075 106.984 302.075 101.832C302.075 100.264 303.755 99.032 307.675 99.032C310.419 99.032 313.387 99.592 316.355 101.272L319.267 95.056C316.411 93.376 311.819 92.424 307.675 92.424C298.883 92.424 293.731 96.456 293.731 102.168C293.731 114.208 311.931 109.168 311.931 114.096C311.931 115.776 310.419 116.84 306.387 116.84C302.691 116.84 298.603 115.664 295.915 113.928L293.003 120.2C295.803 122.048 300.955 123.448 306.051 123.448ZM347.281 92.872V107.768C347.281 113.312 344.369 115.888 340.337 115.888C336.473 115.888 334.233 113.648 334.233 108.608V92.872H325.497V109.896C325.497 119.192 330.817 123.448 338.377 123.448C342.073 123.448 345.433 122.048 347.729 119.416V123H356.017V92.872H347.281ZM376.262 92.424C371.446 92.424 366.574 93.712 363.27 96.064L366.406 102.168C368.59 100.432 371.894 99.368 375.086 99.368C379.79 99.368 382.03 101.552 382.03 105.304H375.086C365.902 105.304 362.15 109 362.15 114.32C362.15 119.528 366.35 123.448 373.406 123.448C377.83 123.448 380.966 121.992 382.59 119.248V123H390.766V105.808C390.766 96.68 385.446 92.424 376.262 92.424ZM375.59 117.568C372.51 117.568 370.662 116.112 370.662 113.928C370.662 111.912 371.95 110.4 376.038 110.4H382.03V113.48C381.022 116.224 378.502 117.568 375.59 117.568ZM424.668 123.448C433.684 123.448 438.892 119.472 438.892 113.872C438.892 102 420.692 106.984 420.692 101.832C420.692 100.264 422.372 99.032 426.292 99.032C429.036 99.032 432.004 99.592 434.972 101.272L437.884 95.056C435.028 93.376 430.436 92.424 426.292 92.424C417.5 92.424 412.348 96.456 412.348 102.168C412.348 114.208 430.548 109.168 430.548 114.096C430.548 115.776 429.036 116.84 425.004 116.84C421.308 116.84 417.22 115.664 414.532 113.928L411.62 120.2C414.42 122.048 419.572 123.448 424.668 123.448ZM456.434 92.424C451.618 92.424 446.746 93.712 443.442 96.064L446.578 102.168C448.762 100.432 452.066 99.368 455.258 99.368C459.962 99.368 462.202 101.552 462.202 105.304H455.258C446.074 105.304 442.322 109 442.322 114.32C442.322 119.528 446.522 123.448 453.578 123.448C458.002 123.448 461.138 121.992 462.762 119.248V123H470.938V105.808C470.938 96.68 465.618 92.424 456.434 92.424ZM455.762 117.568C452.682 117.568 450.834 116.112 450.834 113.928C450.834 111.912 452.122 110.4 456.21 110.4H462.202V113.48C461.194 116.224 458.674 117.568 455.762 117.568ZM505.781 80.944H496.373L488.812 89.008H495.645L505.781 80.944ZM500.461 92.872V107.768C500.461 113.312 497.549 115.888 493.517 115.888C489.653 115.888 487.413 113.648 487.413 108.608V92.872H478.677V109.896C478.677 119.192 483.997 123.448 491.557 123.448C495.253 123.448 498.613 122.048 500.909 119.416V123H509.197V92.872H500.461ZM539.242 81.448V96.064C537.058 93.6 533.922 92.424 530.226 92.424C521.714 92.424 515.162 98.472 515.162 107.936C515.162 117.4 521.714 123.448 530.226 123.448C534.258 123.448 537.45 122.16 539.634 119.528V123H547.978V81.448H539.242ZM531.738 116.28C527.37 116.28 524.01 113.144 524.01 107.936C524.01 102.728 527.37 99.592 531.738 99.592C536.05 99.592 539.41 102.728 539.41 107.936C539.41 113.144 536.05 116.28 531.738 116.28ZM585.575 108.048C585.575 98.36 578.743 92.424 569.895 92.424C560.711 92.424 553.823 98.92 553.823 107.936C553.823 116.896 560.599 123.448 571.015 123.448C576.447 123.448 580.647 121.768 583.447 118.576L578.799 113.536C576.727 115.496 574.431 116.448 571.239 116.448C566.647 116.448 563.455 114.152 562.615 110.4H585.407C585.463 109.672 585.575 108.72 585.575 108.048ZM569.951 99.032C573.871 99.032 576.727 101.496 577.343 105.304H562.503C563.119 101.44 565.975 99.032 569.951 99.032ZM624.163 122.888H624.947C629.315 121.712 634.187 117.232 638.331 110.904C642.587 105.024 644.771 98.416 644.771 93.712C644.771 88.616 641.579 84.976 637.155 84.472C633.011 83.968 627.355 86.656 624.163 95C621.251 86.936 616.099 83.464 611.955 83.968C608.035 84.472 604.339 87.888 604.339 95C604.339 100.152 606.523 106.256 610.667 111.912C614.587 117.232 619.795 121.376 624.163 122.888Z" fill="white"/>
</svg>
