<svg width="25" height="25" viewBox="0 0 25 25" fill="none" xmlns="http://www.w3.org/2000/svg">
<path d="M12.4512 0C5.56934 0 0 5.56885 0 12.4512C0 19.282 5.5188 25 12.4512 25C19.3186 25 25 19.3401 25 12.4512C25 5.51123 19.2746 0 12.4512 0ZM12.4512 23.5449C6.39331 23.5449 1.45508 18.5629 1.45508 12.4512C1.45508 6.39331 6.39331 1.45508 12.4512 1.45508C18.5629 1.45508 23.5449 6.39331 23.5449 12.4512C23.5449 18.5629 18.5629 23.5449 12.4512 23.5449Z" fill="#0C131A"/>
<path d="M12.4512 4.39453C8.00874 4.39453 4.39453 8.00874 4.39453 12.4512C4.39453 16.9103 8.00132 20.6055 12.4512 20.6055C14.2517 20.6055 16.073 20.0003 17.4482 18.9453C17.7691 18.699 17.8297 18.2393 17.5834 17.9183C17.3372 17.5974 16.8774 17.5368 16.5565 17.7831C15.432 18.6458 13.9357 19.1504 12.4512 19.1504C8.81645 19.1504 5.85938 16.1397 5.85938 12.4512C5.85938 8.81645 8.81645 5.84961 12.4512 5.84961C16.1397 5.84961 19.1406 8.81645 19.1406 12.4512V13.1836C19.1406 13.9913 18.4835 14.6484 17.6758 14.6484C16.8681 14.6484 16.2109 13.9913 16.2109 13.1836C16.2109 12.8208 16.2109 9.9041 16.2109 9.52148C16.2109 9.11699 15.883 8.78906 15.4785 8.78906C15.074 8.78906 14.7461 9.11699 14.7461 9.52148V9.56792C14.0847 9.06357 13.2846 8.78906 12.4512 8.78906C10.4319 8.78906 8.78906 10.4319 8.78906 12.4512C8.78906 14.4705 10.4319 16.1133 12.4512 16.1133C13.546 16.1133 14.5537 15.6435 15.2703 14.8529C15.8 15.6139 16.6804 16.1133 17.6758 16.1133C19.2912 16.1133 20.6055 14.799 20.6055 13.1836V12.4512C20.6055 7.99541 16.9048 4.39453 12.4512 4.39453ZM12.4512 14.6582C11.2396 14.6582 10.2539 13.6627 10.2539 12.4512C10.2539 11.2396 11.2396 10.2441 12.4512 10.2441C13.6952 10.2441 14.7461 11.2601 14.7461 12.4512C14.7461 13.6422 13.6952 14.6582 12.4512 14.6582Z" fill="#0C131A"/>
</svg>
