<svg width="25" height="25" viewBox="0 0 25 25" fill="none" xmlns="http://www.w3.org/2000/svg">
<path d="M21.7773 1.95312H19.5312V0.78125C19.5312 0.349805 19.1815 0 18.75 0C18.3185 0 17.9688 0.349805 17.9688 0.78125V1.95312H7.03125V0.78125C7.03125 0.349805 6.68149 0 6.25 0C5.81851 0 5.46875 0.349805 5.46875 0.78125V1.95312H3.22266C1.44565 1.95312 0 3.39878 0 5.17578V21.7773C0 23.5543 1.44565 25 3.22266 25H21.7773C23.5543 25 25 23.5543 25 21.7773V5.17578C25 3.39878 23.5543 1.95312 21.7773 1.95312ZM3.22266 3.51562H5.46875V4.29688C5.46875 4.72832 5.81851 5.07812 6.25 5.07812C6.68149 5.07812 7.03125 4.72832 7.03125 4.29688V3.51562H17.9688V4.29688C17.9688 4.72832 18.3185 5.07812 18.75 5.07812C19.1815 5.07812 19.5312 4.72832 19.5312 4.29688V3.51562H21.7773C22.6928 3.51562 23.4375 4.26035 23.4375 5.17578V7.03125H1.5625V5.17578C1.5625 4.26035 2.30723 3.51562 3.22266 3.51562ZM21.7773 23.4375H3.22266C2.30723 23.4375 1.5625 22.6928 1.5625 21.7773V8.59375H23.4375V21.7773C23.4375 22.6928 22.6928 23.4375 21.7773 23.4375Z" fill="black"/>
</svg>
