<svg width="73" height="70" viewBox="0 0 73 70" fill="none" xmlns="http://www.w3.org/2000/svg">
<path opacity="0.9" d="M35.4 69.8C33.4667 69.1333 31.4333 68.2 29.3 67C27.2333 65.7333 25.1333 64.2667 23 62.6C20.9333 60.8667 18.9 58.9667 16.9 56.9C14.9 54.8333 13.0333 52.6 11.3 50.2C7.56667 45.1333 4.73333 40 2.8 34.8C0.933333 29.5333 0 24.6 0 20C0 16.8 0.366667 14.0333 1.1 11.7C1.9 9.30001 2.93333 7.30001 4.2 5.70001C5.46667 4.1 6.9 2.86667 8.5 2.00001C10.1667 1.06667 11.8667 0.500007 13.6 0.300006C15.4667 0.100004 17.4 0.333337 19.4 1C21.4 1.66667 23.3667 2.80001 25.3 4.40001C27.2333 6.00001 29.0667 8.1 30.8 10.7C32.5333 13.3 34.0667 16.4 35.4 20C36.8 16.2667 38.4333 13.1667 40.3 10.7C42.2333 8.16667 44.2333 6.16667 46.3 4.7C48.4333 3.23334 50.5333 2.23334 52.6 1.70001C54.7333 1.16667 56.7333 1 58.6 1.20001C62.6 1.66667 65.8667 3.4 68.4 6.4C70.9333 9.33334 72.2 13.1 72.2 17.7C72.2 19.8333 71.9333 22.1333 71.4 24.6C70.9333 27.0667 70.2333 29.6333 69.3 32.3C68.3667 34.9 67.1667 37.6 65.7 40.4C64.2333 43.1333 62.5667 45.8 60.7 48.4C56.9667 54.0667 53.0333 58.8 48.9 62.6C44.7667 66.3333 40.7333 68.7333 36.8 69.8H35.4Z" fill="white"/>
</svg>
