<svg width="52" height="52" viewBox="0 0 52 52" fill="none" xmlns="http://www.w3.org/2000/svg">
<g opacity="0.6">
<path d="M26 42.0952C25.4937 42.0962 25.0031 41.9199 24.6133 41.5969L11.6133 30.7636C11.1708 30.3958 10.8926 29.8673 10.8397 29.2944C10.7869 28.7215 10.9639 28.151 11.3316 27.7086C11.6994 27.2661 12.2279 26.9878 12.8008 26.935C13.3737 26.8822 13.9442 27.0591 14.3866 27.4269L26 37.1336L37.6133 27.7736C37.8349 27.5936 38.0899 27.4592 38.3637 27.3781C38.6374 27.297 38.9245 27.2708 39.2083 27.301C39.4922 27.3312 39.7674 27.4172 40.0179 27.5541C40.2685 27.6909 40.4895 27.876 40.6683 28.0986C40.8667 28.3213 41.017 28.5827 41.1097 28.8663C41.2024 29.1498 41.2356 29.4495 41.2071 29.7464C41.1786 30.0434 41.0891 30.3313 40.9442 30.5921C40.7993 30.8528 40.6021 31.0809 40.365 31.2619L27.365 41.7269C26.9639 41.9988 26.4833 42.1285 26 42.0952Z" fill="white"/>
<path d="M26 30.9524C25.4937 30.9534 25.0031 30.777 24.6133 30.454L11.6133 19.6207C11.1708 19.2529 10.8926 18.7245 10.8397 18.1515C10.7869 17.5786 10.9639 17.0082 11.3316 16.5657C11.6994 16.1232 12.2279 15.845 12.8008 15.7922C13.3737 15.7393 13.9442 15.9163 14.3866 16.284L26 25.9907L37.6133 16.6307C37.8349 16.4507 38.0899 16.3163 38.3637 16.2352C38.6374 16.1541 38.9245 16.1279 39.2083 16.1581C39.4922 16.1883 39.7674 16.2743 40.0179 16.4112C40.2685 16.5481 40.4895 16.7331 40.6683 16.9557C40.8667 17.1785 41.017 17.4398 41.1097 17.7234C41.2024 18.007 41.2356 18.3066 41.2071 18.6036C41.1786 18.9006 41.0891 19.1884 40.9442 19.4492C40.7993 19.71 40.6021 19.938 40.365 20.119L27.365 30.584C26.9639 30.856 26.4833 30.9857 26 30.9524Z" fill="white"/>
</g>
</svg>
