<svg width="25" height="25" viewBox="0 0 25 25" fill="none" xmlns="http://www.w3.org/2000/svg">
<path d="M2.19727 2.97852H22.8027C24.0128 2.97852 25 3.96465 25 5.17578V19.8242C25 21.0312 24.0172 22.0215 22.8027 22.0215H2.19727C0.990234 22.0215 0 21.0387 0 19.8242V5.17578C0 3.96875 0.982813 2.97852 2.19727 2.97852ZM2.50068 4.44336L12.4534 14.3961L22.4922 4.44336H2.50068ZM23.5352 19.5209V5.47212L16.4805 12.4663L23.5352 19.5209ZM22.4994 20.5566L15.4403 13.4976L12.9668 15.9498C12.6805 16.2337 12.2184 16.2328 11.9333 15.9476L9.52148 13.5358L2.50064 20.5566H22.4994ZM1.46484 19.5208L8.48569 12.5L1.46484 5.4791V19.5208Z" fill="#0C131A"/>
</svg>
