<svg width="25" height="25" viewBox="0 0 25 25" fill="none" xmlns="http://www.w3.org/2000/svg">
<path d="M24.2676 1.89062H14.9876C13.9867 1.89062 13.0911 2.34961 12.5 3.06821C11.909 2.34961 11.0133 1.89062 10.0124 1.89062H0.732422C0.32793 1.89062 0 2.21855 0 2.62305V22.377C0 22.7814 0.32793 23.1094 0.732422 23.1094H24.2676C24.6721 23.1094 25 22.7814 25 22.377V2.62305C25 2.21855 24.6721 1.89062 24.2676 1.89062ZM14.9876 3.35547H23.5352V18.0933H14.8225C14.7269 18.0933 14.6321 18.112 14.5437 18.1484L13.2324 18.6884V5.11069C13.2324 4.14287 14.0198 3.35547 14.9876 3.35547ZM1.46484 3.35547H10.0124C10.9802 3.35547 11.7676 4.14287 11.7676 5.11069V18.6884L10.4563 18.1484C10.3679 18.112 10.2731 18.0933 10.1775 18.0933H1.46484V3.35547ZM1.46484 21.6445V19.5581H10.0326L12.2211 20.4593C12.3104 20.496 12.4052 20.5145 12.5 20.5145C12.5947 20.5145 12.6895 20.496 12.7788 20.4593L14.9673 19.5581H23.5352V21.6445H1.46484Z" fill="#0C131A"/>
<path d="M9.10357 7.31953H4.12886C3.72437 7.31953 3.39644 7.64746 3.39644 8.05195C3.39644 8.45644 3.72437 8.78437 4.12886 8.78437H9.10357C9.50806 8.78437 9.83599 8.45644 9.83599 8.05195C9.83599 7.64746 9.50806 7.31953 9.10357 7.31953Z" fill="#0C131A"/>
<path d="M9.10357 10.4701H4.12886C3.72437 10.4701 3.39644 10.798 3.39644 11.2025C3.39644 11.607 3.72437 11.935 4.12886 11.935H9.10357C9.50806 11.935 9.83599 11.607 9.83599 11.2025C9.83599 10.798 9.50806 10.4701 9.10357 10.4701Z" fill="#0C131A"/>
<path d="M9.10357 13.6207H4.12886C3.72437 13.6207 3.39644 13.9486 3.39644 14.3531C3.39644 14.7576 3.72437 15.0855 4.12886 15.0855H9.10357C9.50806 15.0855 9.83599 14.7576 9.83599 14.3531C9.83599 13.9486 9.50806 13.6207 9.10357 13.6207Z" fill="#0C131A"/>
<path d="M15.6573 8.78437H20.632C21.0365 8.78437 21.3644 8.45644 21.3644 8.05195C21.3644 7.64746 21.0365 7.31953 20.632 7.31953H15.6573C15.2528 7.31953 14.9249 7.64746 14.9249 8.05195C14.9249 8.45644 15.2527 8.78437 15.6573 8.78437Z" fill="#0C131A"/>
<path d="M15.6573 11.935H20.632C21.0365 11.935 21.3644 11.607 21.3644 11.2025C21.3644 10.798 21.0365 10.4701 20.632 10.4701H15.6573C15.2528 10.4701 14.9249 10.798 14.9249 11.2025C14.9249 11.607 15.2527 11.935 15.6573 11.935Z" fill="#0C131A"/>
<path d="M15.6573 15.0855H20.632C21.0365 15.0855 21.3644 14.7576 21.3644 14.3531C21.3644 13.9486 21.0365 13.6207 20.632 13.6207H15.6573C15.2528 13.6207 14.9249 13.9486 14.9249 14.3531C14.9249 14.7576 15.2527 15.0855 15.6573 15.0855Z" fill="#0C131A"/>
</svg>
