<svg width="25" height="23" viewBox="0 0 25 23" fill="none" xmlns="http://www.w3.org/2000/svg">
<path d="M0.78123 4.92188H24.2187C24.65 4.92188 24.9999 4.60685 24.9999 4.21877C24.9999 3.83063 24.6499 3.51566 24.2187 3.51566H0.78123C0.350027 3.51566 0 3.83063 0 4.21877C0 4.60691 0.350027 4.92188 0.78123 4.92188Z" fill="#0C131A"/>
<path d="M24.2187 10.5469H0.78123C0.349962 10.5469 0 10.8619 0 11.25C0 11.6381 0.350027 11.9531 0.78123 11.9531H24.2187C24.65 11.9531 24.9999 11.6381 24.9999 11.25C24.9999 10.8619 24.65 10.5469 24.2187 10.5469Z" fill="#0C131A"/>
<path d="M24.2187 17.5782H0.78123C0.349962 17.5782 0 17.8932 0 18.2813C0 18.6694 0.350027 18.9844 0.78123 18.9844H24.2187C24.65 18.9844 24.9999 18.6693 24.9999 18.2813C25 17.8931 24.65 17.5782 24.2187 17.5782Z" fill="#0C131A"/>
</svg>
