<svg width="25" height="25" viewBox="0 0 25 25" fill="none" xmlns="http://www.w3.org/2000/svg">
<path d="M17.6136 0C15.6405 0 13.7851 0.768483 12.3912 2.16344L2.16397 12.3907C0.769015 13.7861 0 15.641 0 17.6136C0 21.6863 3.31363 25 7.38637 25C9.36061 25 11.2149 24.2315 12.6088 22.8366L22.836 12.6098C24.232 11.2143 25 9.35943 25 7.38632C24.9999 3.31363 21.6863 0 17.6136 0ZM7.98339 11.3925L4.5743 14.801C3.82302 15.5523 3.40909 16.5516 3.40909 17.6136C3.40909 17.9277 3.15495 18.1818 2.84089 18.1818C2.52683 18.1818 2.27269 17.9277 2.27269 17.6136C2.27269 16.2475 2.80424 14.9636 3.77082 13.9976L7.17991 10.589C7.40187 10.3671 7.76142 10.3671 7.98333 10.589C8.20535 10.811 8.20535 11.1705 7.98339 11.3925ZM21.2291 11.0029L16.5173 15.7142L9.28614 8.48229L13.9981 3.77029C14.9636 2.80429 16.2475 2.27269 17.6136 2.27269C20.4335 2.27269 22.7273 4.56652 22.7273 7.38632C22.7273 8.7524 22.1957 10.0369 21.2291 11.0029Z" fill="black"/>
</svg>
