<svg width="25" height="30" viewBox="0 0 25 30" fill="none" xmlns="http://www.w3.org/2000/svg">
<path d="M12.4954 2.08333C15.9445 2.08333 19.0673 3.49646 21.3342 5.77138C23.592 8.05606 24.9945 11.2025 24.9945 14.6777C24.9945 18.1529 23.592 21.2994 21.3342 23.5841C19.0667 25.859 15.9445 27.2721 12.4954 27.2721C9.04638 27.2721 5.92418 25.859 3.66636 23.5841C1.39886 21.2994 0.00543213 18.1535 0.00543213 14.6777C0.00543213 11.2025 1.39826 8.05606 3.66576 5.77138C5.92417 3.49646 9.04638 2.08333 12.4954 2.08333ZM18.8658 13.9904C19.2404 13.9904 19.5383 14.3002 19.5383 14.6777C19.5383 15.0552 19.2404 15.3651 18.8658 15.3651H12.5148H12.4954C12.2455 15.3651 12.0245 15.2199 11.9095 15.0168L11.8998 15.0071L11.8901 14.9876V14.9778L11.8804 14.9583L11.8708 14.9388V14.929L11.8611 14.9095L11.8514 14.8997V14.8802L11.8417 14.8607V14.8509L11.832 14.8314V14.8119V14.8021V14.7924L11.8223 14.7826V14.7631V14.7436V14.7265V14.7168V14.6972V14.6777V6.47825C11.8223 6.10073 12.1202 5.80066 12.4948 5.80066C12.8695 5.80066 13.177 6.10073 13.177 6.47825V13.9904H18.8658ZM20.3736 6.7399C18.3561 4.70711 15.5698 3.45804 12.4954 3.45804C9.42106 3.45804 6.63481 4.7065 4.61731 6.7399C2.60949 8.77269 1.36012 11.5801 1.36012 14.6777C1.36012 17.7754 2.60888 20.5828 4.61731 22.6162C6.63481 24.6489 9.42106 25.898 12.4954 25.898C15.5698 25.898 18.3561 24.6489 20.3736 22.6162C22.3911 20.5834 23.6405 17.776 23.6405 14.6777C23.6405 11.5801 22.3917 8.77269 20.3736 6.7399Z" fill="#0C131A"/>
</svg>
