<svg width="25" height="25" viewBox="0 0 25 25" fill="none" xmlns="http://www.w3.org/2000/svg">
<g clip-path="url(#clip0)">
<path d="M16.1105 3.63793C15.7709 2.36708 14.9604 1.30722 13.8284 0.653611C13.0877 0.226024 12.2442 0 11.389 0C9.63376 0 8.00168 0.93818 7.12976 2.44843L4.03974 7.80046C4.03944 7.80095 4.0391 7.80139 4.03881 7.80187C4.03851 7.80236 4.03832 7.8029 4.03803 7.80339L0.947901 13.1556C-0.404047 15.4973 0.401224 18.5023 2.74291 19.8542C3.48344 20.2818 4.32684 20.5077 5.18192 20.5077C6.78279 20.5077 8.28537 19.7327 9.20124 18.4346C9.20964 18.4227 9.2175 18.4105 9.22477 18.3979L15.623 7.35295C16.2762 6.22532 16.4493 4.90604 16.1105 3.63793ZM8.39104 17.8889C7.65671 18.9177 6.45872 19.5312 5.18192 19.5312C4.49803 19.5312 3.82348 19.3504 3.23119 19.0085C1.35581 17.9258 0.710939 15.5192 1.79365 13.6438L4.64047 8.713L5.69739 9.32321C5.69749 9.32325 5.69754 9.32335 5.69764 9.32335C5.69769 9.3234 5.69779 9.3234 5.69783 9.32345L11.4342 12.6355L8.39104 17.8889ZM14.778 6.86335L11.9237 11.7906L6.60872 8.72189L7.97473 6.35588C8.10954 6.12234 8.02956 5.82371 7.79602 5.68889C7.56248 5.55403 7.26384 5.63406 7.12903 5.8676L5.76302 8.23361L5.1287 7.8674L7.97541 2.93676C8.67351 1.72763 9.98151 0.976559 11.389 0.976559C12.073 0.976559 12.7477 1.15732 13.3401 1.49936C14.2461 2.0224 14.8949 2.87147 15.167 3.89002C15.4384 4.90584 15.3002 5.96179 14.778 6.86335Z" fill="black"/>
<path d="M22.5711 16.7392C21.3789 16.3986 19.8065 16.211 18.1438 16.211C16.481 16.211 14.9087 16.3986 13.7164 16.7392C12.2998 17.144 11.5809 17.7138 11.5792 18.4329C11.5792 18.4338 11.579 18.4345 11.579 18.4354V22.7756C11.579 23.4972 12.297 24.0682 13.7129 24.4728C14.903 24.8128 16.4765 25.0001 18.1437 25.0001C19.8108 25.0001 21.3844 24.8128 22.5744 24.4728C23.9904 24.0682 24.7083 23.4972 24.7083 22.7756V18.4384C24.7084 18.4374 24.7085 18.4364 24.7085 18.4354C24.7085 17.7151 23.9894 17.1444 22.5711 16.7392ZM13.9848 17.6782C15.0923 17.3618 16.5693 17.1876 18.1438 17.1876C19.7184 17.1876 21.1954 17.3618 22.3029 17.6782C23.4802 18.0146 23.7305 18.3759 23.7319 18.4348C23.7319 18.435 23.7319 18.4352 23.7319 18.4354V18.4363C23.7299 18.4958 23.4788 18.8566 22.3029 19.1926C21.1954 19.509 19.7184 19.6832 18.1438 19.6832C16.5693 19.6832 15.0923 19.509 13.9848 19.1926C12.8041 18.8552 12.5557 18.4928 12.5557 18.4354C12.5557 18.378 12.8041 18.0155 13.9848 17.6782ZM23.7319 22.7756C23.7318 22.8452 23.4782 23.199 22.3063 23.5338C21.201 23.8496 19.7227 24.0235 18.1438 24.0235C16.5648 24.0235 15.0866 23.8496 13.9813 23.5338C12.8094 23.199 12.5557 22.8452 12.5557 22.7756V19.6841C12.8683 19.8503 13.2552 19.9997 13.7165 20.1315C14.9088 20.4722 16.4811 20.6598 18.1438 20.6598C19.8066 20.6598 21.3789 20.4722 22.5712 20.1315C23.0324 19.9997 23.4192 19.8504 23.7319 19.6841V20.9027C23.0313 21.2493 22.1574 21.5301 21.1828 21.7196C20.9181 21.7711 20.7452 22.0274 20.7967 22.2921C20.842 22.5254 21.0464 22.6873 21.2755 22.6873C21.3064 22.6873 21.3378 22.6843 21.3692 22.6782C22.2389 22.5091 23.041 22.2698 23.7319 21.9762V22.7756Z" fill="black"/>
<path d="M8.5293 4.4183C8.29575 4.28349 7.99717 4.36347 7.86231 4.59702L7.8544 4.61074C7.71959 4.84428 7.79957 5.14287 8.03311 5.27773C8.11001 5.32212 8.19395 5.34321 8.27681 5.34321C8.44556 5.34321 8.60967 5.25566 8.7001 5.09902L8.70801 5.0853C8.84287 4.85175 8.76284 4.55317 8.5293 4.4183Z" fill="black"/>
<path d="M20.2982 22.3613C20.2715 22.093 20.0327 21.8973 19.7638 21.924L19.7528 21.9251C19.4844 21.9505 19.2873 22.1888 19.3128 22.4572C19.3367 22.71 19.5494 22.8995 19.7983 22.8995C19.8136 22.8995 19.8293 22.8987 19.8449 22.8973L19.861 22.8957C20.1293 22.8689 20.3251 22.6296 20.2982 22.3613Z" fill="black"/>
</g>
<defs>
<clipPath id="clip0">
<rect width="25" height="25" fill="white"/>
</clipPath>
</defs>
</svg>
