<svg width="36" height="27" viewBox="0 0 36 27" fill="none" xmlns="http://www.w3.org/2000/svg">
<path d="M10.9239 18.018C11.1759 18.732 11.3019 19.572 11.3019 20.538C11.3019 20.692 11.2529 20.832 11.1549 20.958C11.0709 21.07 10.9519 21.14 10.7979 21.168H10.6719C10.3919 21.168 10.1959 21.035 10.0839 20.769C9.8459 20.167 9.5099 19.572 9.0759 18.984C8.6559 18.396 8.1519 17.857 7.5639 17.367C6.9899 16.863 6.3529 16.436 5.6529 16.086C4.9529 15.722 4.2249 15.47 3.4689 15.33C3.3989 15.344 3.2939 15.351 3.1539 15.351H3.1119C3.0839 16.359 3.0699 17.297 3.0699 18.165C3.0699 19.033 3.0769 19.761 3.0909 20.349C3.1049 20.503 3.0629 20.636 2.9649 20.748C2.8809 20.86 2.7689 20.937 2.6289 20.979C2.5869 20.993 2.5309 21 2.4609 21C2.2089 21 2.0269 20.888 1.9149 20.664C1.8029 20.454 1.6909 20.125 1.5789 19.677C1.4669 19.215 1.3619 18.69 1.2639 18.102C1.1799 17.514 1.0959 16.891 1.0119 16.233C0.927902 15.561 0.864902 14.917 0.822902 14.301C0.710902 12.733 0.689902 11.347 0.759902 10.143C0.871902 8.673 1.1169 7.623 1.4949 6.993C1.7049 6.643 1.9289 6.419 2.1669 6.321C2.4049 6.209 2.6219 6.153 2.8179 6.153C2.9999 6.153 3.1609 6.223 3.3009 6.363C3.4129 6.503 3.4619 6.664 3.4479 6.846L3.3849 7.749C4.1829 7.413 4.8759 7.161 5.4639 6.993C6.0519 6.825 6.6189 6.727 7.1649 6.699C7.9629 6.657 8.6139 6.699 9.1179 6.825C9.6359 6.951 10.0559 7.168 10.3779 7.476C10.8259 7.882 11.0499 8.456 11.0499 9.198C11.0499 9.856 10.8259 10.556 10.3779 11.298C9.9439 12.012 9.3699 12.663 8.6559 13.251C8.3619 13.503 8.0469 13.734 7.7109 13.944C7.3889 14.154 7.0529 14.343 6.7029 14.511C7.8229 14.833 8.7259 15.281 9.4119 15.855C10.0979 16.415 10.6019 17.136 10.9239 18.018ZM7.2279 7.938C6.7099 7.966 6.1499 8.078 5.5479 8.274C4.9459 8.47 4.1969 8.764 3.3009 9.156C3.2729 9.87 3.2449 10.64 3.2169 11.466C3.1889 12.292 3.1609 13.139 3.1329 14.007C3.2449 14.007 3.3569 14.014 3.4689 14.028C3.5809 14.028 3.6929 14.035 3.8049 14.049C4.4209 13.965 4.9599 13.804 5.4219 13.566C5.8979 13.328 6.2969 13.076 6.6189 12.81C7.3189 12.222 7.8369 11.585 8.1729 10.899C8.5089 10.199 8.6839 9.604 8.6979 9.114C8.6979 8.652 8.6209 8.351 8.4669 8.211C8.2849 8.001 7.8719 7.91 7.2279 7.938ZM14.3559 21C14.1739 21 14.0129 20.93 13.8729 20.79C13.7329 20.622 13.5999 20.377 13.4739 20.055C13.3479 19.733 13.2359 19.383 13.1379 19.005C13.0399 18.627 12.9559 18.249 12.8859 17.871C12.8159 17.479 12.7599 17.136 12.7179 16.842C12.6619 16.52 12.6129 16.149 12.5709 15.729C12.5429 15.295 12.5289 14.854 12.5289 14.406C12.5289 13.958 12.5569 13.517 12.6129 13.083C12.6689 12.649 12.7739 12.257 12.9279 11.907C13.0399 11.655 13.1659 11.452 13.3059 11.298C13.4599 11.144 13.6139 11.025 13.7679 10.941C13.9219 10.857 14.0689 10.801 14.2089 10.773C14.3489 10.745 14.4679 10.731 14.5659 10.731C14.7199 10.731 14.8599 10.794 14.9859 10.92C15.1259 11.032 15.1959 11.179 15.1959 11.361V11.424C15.0979 12.474 15.0349 13.552 15.0069 14.658C14.9789 15.75 14.9649 16.821 14.9649 17.871C14.9649 18.305 14.9649 18.732 14.9649 19.152C14.9649 19.558 14.9719 19.964 14.9859 20.37C14.9859 20.538 14.9229 20.678 14.7969 20.79C14.6849 20.902 14.5379 20.972 14.3559 21ZM14.1669 10.395C13.9709 10.325 13.7679 10.213 13.5579 10.059C13.3619 9.891 13.1799 9.688 13.0119 9.45C12.6479 8.96 12.4659 8.477 12.4659 8.001C12.4659 7.693 12.5289 7.469 12.6549 7.329C12.7949 7.175 12.9489 7.084 13.1169 7.056C13.2989 7.028 13.4879 7.091 13.6839 7.245C13.8799 7.399 14.0409 7.651 14.1669 8.001C14.3069 7.637 14.4819 7.392 14.6919 7.266C14.9019 7.126 15.0979 7.07 15.2799 7.098C15.4759 7.126 15.6299 7.21 15.7419 7.35C15.8679 7.49 15.9309 7.672 15.9309 7.896C15.9309 8.092 15.8819 8.323 15.7839 8.589C15.6999 8.855 15.5669 9.114 15.3849 9.366C15.0069 9.94 14.6219 10.283 14.2299 10.395H14.1669ZM25.8006 13.482C25.9546 13.552 26.0666 13.664 26.1366 13.818C26.2206 13.972 26.2276 14.126 26.1576 14.28C25.3316 16.562 24.5266 18.256 23.7426 19.362C22.9586 20.454 22.1746 21 21.3906 21C21.1526 21 20.9006 20.958 20.6346 20.874C20.3686 20.79 20.0956 20.636 19.8156 20.412C19.5496 20.174 19.2836 19.852 19.0176 19.446C18.7656 19.04 18.5346 18.508 18.3246 17.85C18.0866 17.08 17.8976 16.198 17.7576 15.204C17.6316 14.196 17.5686 13.153 17.5686 12.075C17.5686 11.893 17.5686 11.718 17.5686 11.55C17.5686 11.382 17.5756 11.207 17.5896 11.025H17.2956C17.1276 11.025 16.9806 10.962 16.8546 10.836C16.7426 10.71 16.6866 10.556 16.6866 10.374C16.6866 10.206 16.7496 10.066 16.8756 9.954C17.0016 9.828 17.1556 9.765 17.3376 9.765H17.6736C17.7016 9.513 17.7366 9.268 17.7786 9.03C17.8206 8.792 17.8626 8.568 17.9046 8.358C17.9746 8.078 18.0446 7.833 18.1146 7.623C18.1986 7.413 18.2826 7.231 18.3666 7.077C18.5486 6.769 18.7306 6.573 18.9126 6.489C19.1086 6.391 19.2836 6.342 19.4376 6.342C19.6196 6.342 19.7666 6.405 19.8786 6.531C20.0046 6.643 20.0676 6.79 20.0676 6.972C20.0676 7.182 20.0606 7.434 20.0466 7.728C20.0466 8.008 20.0396 8.33 20.0256 8.694C20.0256 8.848 20.0186 9.016 20.0046 9.198C20.0046 9.366 19.9976 9.541 19.9836 9.723L20.5926 9.681C21.2786 9.625 21.8386 9.562 22.2726 9.492C22.7066 9.408 23.0426 9.331 23.2806 9.261C23.5326 9.177 23.7006 9.107 23.7846 9.051C23.8826 8.995 23.9456 8.953 23.9736 8.925C23.9736 8.757 24.0296 8.617 24.1416 8.505C24.2676 8.379 24.4216 8.316 24.6036 8.316C24.7716 8.316 24.9186 8.379 25.0446 8.505C25.1706 8.631 25.2336 8.778 25.2336 8.946C25.2336 9.058 25.2056 9.198 25.1496 9.366C25.0936 9.52 24.9886 9.681 24.8346 9.849C24.4706 10.199 23.8266 10.465 22.9026 10.647C22.2586 10.787 21.4396 10.892 20.4456 10.962C20.3616 10.962 20.2776 10.969 20.1936 10.983C20.1236 10.983 20.0466 10.983 19.9626 10.983C19.9486 11.641 19.9416 12.313 19.9416 12.999C19.9556 13.671 19.9766 14.343 20.0046 15.015C20.0466 15.827 20.1096 16.506 20.1936 17.052C20.2916 17.598 20.3896 18.046 20.4876 18.396C20.5856 18.732 20.6836 18.991 20.7816 19.173C20.8796 19.355 20.9636 19.488 21.0336 19.572C21.1036 19.656 21.1666 19.705 21.2226 19.719C21.2926 19.733 21.3486 19.74 21.3906 19.74C21.4186 19.74 21.4676 19.733 21.5376 19.719C21.6216 19.691 21.7196 19.642 21.8316 19.572C21.9436 19.488 22.0696 19.369 22.2096 19.215C22.3636 19.061 22.5386 18.851 22.7346 18.585C23.4486 17.577 24.1976 16.002 24.9816 13.86C25.0516 13.692 25.1636 13.573 25.3176 13.503C25.4716 13.419 25.6326 13.412 25.8006 13.482ZM34.796 12.81C35.09 13.482 35.279 14.259 35.363 15.141C35.391 15.533 35.405 15.939 35.405 16.359C35.405 16.765 35.377 17.178 35.321 17.598C35.209 18.452 35.034 19.215 34.796 19.887C34.558 20.559 34.278 21.077 33.956 21.441C33.844 21.567 33.69 21.63 33.494 21.63C33.382 21.63 33.298 21.616 33.242 21.588C33.13 21.532 33.032 21.448 32.948 21.336C32.878 21.224 32.85 21.098 32.864 20.958C32.892 20.692 32.913 20.433 32.927 20.181C32.941 19.915 32.955 19.663 32.969 19.425C32.787 19.593 32.605 19.754 32.423 19.908C32.241 20.048 32.052 20.174 31.856 20.286C31.114 20.734 30.386 20.972 29.672 21H29.588C28.832 21 28.202 20.825 27.698 20.475C27.18 20.097 26.907 19.607 26.879 19.005C26.865 18.641 26.949 18.277 27.131 17.913C27.313 17.535 27.593 17.192 27.971 16.884C28.349 16.576 28.818 16.317 29.378 16.107C29.952 15.897 30.617 15.771 31.373 15.729C31.877 15.687 32.402 15.687 32.948 15.729C32.934 15.561 32.92 15.4 32.906 15.246C32.892 15.078 32.871 14.917 32.843 14.763C32.731 13.923 32.591 13.3 32.423 12.894C32.255 12.474 32.094 12.187 31.94 12.033C31.828 11.907 31.73 11.83 31.646 11.802C31.562 11.774 31.485 11.76 31.415 11.76C31.191 11.76 30.855 11.872 30.407 12.096C29.973 12.32 29.392 12.796 28.664 13.524C28.538 13.65 28.384 13.713 28.202 13.713C28.034 13.713 27.887 13.65 27.761 13.524C27.649 13.398 27.593 13.251 27.593 13.083C27.593 12.901 27.656 12.754 27.782 12.642C28.51 11.9 29.168 11.361 29.756 11.025C30.358 10.675 30.911 10.5 31.415 10.5C32.213 10.5 32.92 10.724 33.536 11.172C33.802 11.368 34.04 11.606 34.25 11.886C34.46 12.152 34.642 12.46 34.796 12.81ZM29.63 19.74C30.064 19.726 30.582 19.558 31.184 19.236C31.786 18.9 32.367 18.333 32.927 17.535C32.955 17.479 32.983 17.444 33.011 17.43V17.01C32.493 16.954 31.975 16.947 31.457 16.989C31.079 17.017 30.75 17.108 30.47 17.262C30.204 17.416 29.98 17.605 29.798 17.829C29.63 18.039 29.504 18.27 29.42 18.522C29.35 18.774 29.322 19.005 29.336 19.215C29.336 19.327 29.357 19.446 29.399 19.572C29.441 19.684 29.518 19.74 29.63 19.74Z" fill="#0C131A"/>
</svg>
