<svg width="101" height="45" viewBox="0 0 101 45" fill="none" xmlns="http://www.w3.org/2000/svg">
<path opacity="0.87" d="M30.14 34.48C29.24 32.02 27.8 29.92 25.82 28.3C23.84 26.62 21.26 25.36 18.08 24.46C20.06 23.5 21.98 22.3 23.66 20.86C25.7 19.18 27.38 17.26 28.58 15.28C29.84 13.18 30.5 11.14 30.5 9.28C30.5 7.24 29.9 5.56 28.58 4.36C26.78 2.62 23.9 1.9 19.4 2.14C16.28 2.26 13.16 3.22 8.6 5.14L8.78 2.56C8.84 2.02 8.66 1.54 8.36 1.18C8 0.819999 7.52 0.579999 6.98 0.579999C5.9 0.579999 4.4 0.999997 3.2 2.98C2.06 4.84 1.4 7.78 1.1 11.98C0.92 15.34 0.98 19.42 1.28 23.86C1.82 30.94 3.14 39.64 4.4 42.04C4.7 42.64 5.3 43 5.96 43C6.14 43 6.26 43 6.44 42.94C7.22 42.7 7.82 41.98 7.76 41.14C7.7 37.84 7.7 32.56 7.82 26.86H7.94C8.24 26.86 8.54 26.86 8.84 26.8C17.54 28.36 25.1 35.5 27.74 42.34C28.04 43.06 28.7 43.48 29.42 43.48H29.78C30.62 43.3 31.22 42.58 31.22 41.68C31.22 38.92 30.86 36.52 30.14 34.48ZM19.58 5.68C21.32 5.62 22.58 5.86 23.12 6.46C23.6 6.88 23.78 7.72 23.78 9.04C23.72 11.8 21.8 16.3 17.84 19.6C15.98 21.1 13.28 22.66 9.8 23.14C9.2 23.08 8.54 23.02 7.88 23.02C8 18.1 8.18 13.18 8.36 9.16C13.46 6.94 16.64 5.86 19.58 5.68ZM39.9458 43C40.9658 42.88 41.7458 42.16 41.7458 41.2C41.6858 38.92 41.6858 36.52 41.6858 34.06C41.6858 28.06 41.8058 21.64 42.3458 15.64V15.46C42.3458 14.44 41.4458 13.66 40.5458 13.66C39.4058 13.66 37.1858 14.08 35.8658 17.02C34.9658 19 34.7258 21.58 34.7258 24.16C34.7258 26.74 34.9658 29.32 35.2658 31.12C35.7458 34.48 36.9458 40.54 38.5658 42.4C38.9258 42.76 39.4058 43 39.9458 43ZM39.4058 12.7H39.5858C40.6658 12.4 41.8658 11.32 42.8858 9.76C43.9058 8.32 44.4458 6.7 44.4458 5.56C44.4458 4.3 43.6658 3.4 42.5858 3.28C41.5658 3.16 40.1858 3.82 39.4058 5.86C38.6858 3.88 37.4258 3.04 36.4058 3.16C35.4458 3.28 34.5458 4.12 34.5458 5.86C34.5458 7.12 35.0858 8.62 36.1058 10C37.0658 11.32 38.3258 12.34 39.4058 12.7ZM72.6448 21.52C71.6848 21.16 70.6648 21.64 70.3048 22.6C68.0848 28.66 65.9248 33.22 63.8848 36.1C61.7248 39.16 60.4048 39.4 60.0448 39.4C59.8048 39.4 59.4448 39.4 59.0248 38.92C58.1848 38.02 56.6248 35.14 56.0848 25.9C55.9048 22.12 55.9048 18.1 55.9648 14.38C56.4448 14.38 56.8648 14.32 57.3448 14.32C60.1048 14.14 62.5048 13.84 64.3648 13.42C67.0648 12.88 68.8048 12.16 69.8848 11.14C70.7848 10.18 71.0248 9.22 71.0248 8.56C71.0248 7.6 70.1848 6.76 69.2248 6.76C68.2048 6.76 67.4248 7.54 67.4248 8.5C67.1848 8.74 65.6848 10.06 57.7648 10.66L56.0248 10.78C56.0848 9.76 56.1448 8.74 56.1448 7.84C56.2048 5.8 56.2648 4.12 56.2648 2.92C56.2648 1.9 55.4848 1.12 54.4648 1.12C53.6248 1.12 52.4248 1.48 51.4048 3.22C50.9248 4.12 50.4448 5.32 50.0848 6.88C49.8448 8.08 49.6048 9.46 49.4248 10.9H48.4648C47.4448 10.9 46.6048 11.68 46.6048 12.64C46.6048 13.66 47.3848 14.5 48.3448 14.5H49.1848C49.1248 15.52 49.1248 16.48 49.1248 17.5C49.1248 23.62 49.9048 29.62 51.2848 34C53.6848 41.44 57.3448 43 60.0448 43C64.4848 43 68.9848 36.76 73.6648 23.8C74.0248 22.9 73.5448 21.88 72.6448 21.52ZM98.3459 19.6C97.4459 17.62 96.2459 16 94.7459 14.92C93.0059 13.66 90.9659 13 88.6859 13C85.8059 13 82.4459 14.92 78.3059 19.12C77.5859 19.78 77.5859 20.92 78.2459 21.64C78.9659 22.36 80.1059 22.36 80.8259 21.64C85.0259 17.5 87.4259 16.6 88.6859 16.6C89.0459 16.6 89.5859 16.66 90.1859 17.38C91.0259 18.28 92.1659 20.38 92.7659 25.18C92.8859 26.02 93.0059 26.98 93.0659 27.94C91.5059 27.82 90.0059 27.82 88.5659 27.94C79.9859 28.42 75.5459 33.1 75.7259 37.3C75.7859 38.98 76.6259 40.48 78.0659 41.5C79.4459 42.46 81.2459 43 83.4659 43H83.7059C85.6859 42.94 87.9059 42.22 89.9459 40.96C91.0859 40.3 92.1059 39.46 93.1259 38.5C93.0659 39.88 92.9459 41.38 92.8259 42.88C92.7659 43.66 93.2459 44.38 93.9059 44.68C94.1459 44.8 94.3859 44.8 94.6259 44.8C95.1059 44.8 95.6459 44.62 95.9459 44.26C97.8059 42.22 99.2459 38.14 99.8459 33.28C100.146 30.88 100.146 28.48 99.9659 26.26C99.7259 23.74 99.1859 21.52 98.3459 19.6ZM83.5859 39.4C82.9259 39.4 82.7459 38.56 82.7459 37.9C82.6259 35.5 84.4859 31.78 88.8059 31.54C90.1859 31.42 91.6859 31.42 93.2459 31.6V32.8C93.1259 32.86 93.0659 32.98 93.0059 33.1C89.8259 37.66 86.0459 39.34 83.5859 39.4Z" fill="white"/>
</svg>
