<svg width="22" height="22" viewBox="0 0 22 22" fill="none" xmlns="http://www.w3.org/2000/svg">
<path d="M13.0155 11.0002L21.5819 2.43337C22.1394 1.87613 22.1394 0.975161 21.5819 0.417926C21.0247 -0.139309 20.1237 -0.139309 19.5665 0.417926L10.9999 8.98472L2.43351 0.417926C1.87603 -0.139309 0.975336 -0.139309 0.418113 0.417926C-0.139371 0.975161 -0.139371 1.87613 0.418113 2.43337L8.98447 11.0002L0.418113 19.567C-0.139371 20.1242 -0.139371 21.0252 0.418113 21.5824C0.695811 21.8604 1.06094 22 1.42581 22C1.79068 22 2.15555 21.8604 2.43351 21.5824L10.9999 13.0156L19.5665 21.5824C19.8444 21.8604 20.2093 22 20.5742 22C20.9391 22 21.3039 21.8604 21.5819 21.5824C22.1394 21.0252 22.1394 20.1242 21.5819 19.567L13.0155 11.0002Z" fill="#0C131A" fill-opacity="0.9"/>
</svg>
